<svg width="52" height="52" viewBox="0 0 52 52" fill="none" xmlns="http://www.w3.org/2000/svg">
<path d="M35.8167 24.2857H24.6738M30.2452 18.7143V29.8571M2 2H11.2857L12.2632 11.2857M12.2632 11.2857L14.65 33.9602C14.8489 35.8506 16.443 37.2857 18.3438 37.2857H41.8142C43.5187 37.2857 45.0044 36.1257 45.4178 34.4723L50.0606 15.9009C50.6467 13.5566 48.8735 11.2857 46.457 11.2857H12.2632ZM40.7994 50.2857C39.7739 50.2857 38.9423 49.4541 38.9423 48.4286C38.9423 47.4031 39.7739 46.5714 40.7994 46.5714C41.8253 46.5714 42.6566 47.4031 42.6566 48.4286C42.6566 49.4541 41.8253 50.2857 40.7994 50.2857ZM16.6567 50.2857C15.6311 50.2857 14.7996 49.4541 14.7996 48.4286C14.7996 47.4031 15.6311 46.5714 16.6567 46.5714C17.6824 46.5714 18.5139 47.4031 18.5139 48.4286C18.5139 49.4541 17.6824 50.2857 16.6567 50.2857Z" stroke="black" stroke-width="3" stroke-linecap="round" stroke-linejoin="round"/>
</svg>
